<svg width="386" height="50" viewBox="0 0 386 50" fill="none" xmlns="http://www.w3.org/2000/svg">
<path fill-rule="evenodd" clip-rule="evenodd" d="M265.715 48.2434L265.715 1.75586L268.715 1.75586L268.715 48.2434L265.715 48.2434Z" fill="white"/>
<path d="M218.19 41.2767C217.542 41.2767 217.008 40.7505 217.008 40.0948V7.61837C217.008 6.97078 217.534 6.43652 218.19 6.43652H237.82C238.467 6.43652 239.001 6.96269 239.001 7.61837V10.3625C239.001 11.0101 238.475 11.5444 237.82 11.5444H222.561V21.0639H235.415C236.047 21.0639 236.597 21.6143 236.597 22.2457V24.9899C236.597 25.6375 236.071 26.1717 235.415 26.1717H222.561V36.2255H237.82C238.467 36.2255 239.001 36.7517 239.001 37.4074V40.1029C239.001 40.7505 238.475 41.2848 237.82 41.2848H218.19V41.2767Z" fill="white"/>
<path d="M191.639 41.2767C190.991 41.2767 190.457 40.7505 190.457 40.0948V7.61837C190.457 6.97078 190.983 6.43652 191.639 6.43652H194.877C195.508 6.43652 196.059 6.98697 196.059 7.61837V36.2255H209.108C209.755 36.2255 210.289 36.7517 210.289 37.4074V40.1029C210.289 40.7505 209.763 41.2848 209.108 41.2848H191.639V41.2767Z" fill="white"/>
<path d="M169.675 41.7613C159.775 41.7613 151.713 33.7474 151.713 23.896C151.713 14.0446 159.767 5.93359 169.675 5.93359C174.314 5.93359 178.029 7.35828 181.712 10.5557C181.979 10.7905 182.125 11.0981 182.133 11.4219C182.141 11.7457 182.012 12.0533 181.769 12.2961L179.608 14.4979C179.349 14.8298 179.057 14.9027 178.855 14.9027C178.572 14.9027 178.296 14.7651 178.029 14.4979C175.722 12.4904 172.614 11.2843 169.716 11.2843C163.062 11.2843 157.646 16.894 157.646 23.7989C157.646 30.7038 163.086 36.2568 169.764 36.2568C173.415 36.2568 175.908 34.7269 178.053 33.0675C178.304 32.8732 178.58 32.768 178.847 32.768C179.098 32.768 179.341 32.857 179.535 33.0189L181.809 35.245C182.012 35.415 182.125 35.6821 182.141 35.9735C182.149 36.3216 182.012 36.6778 181.769 36.9206C178.515 40.0857 174.33 41.7532 169.667 41.7532L169.675 41.7613Z" fill="white"/>
<path d="M139.54 41.2767C139.047 41.2767 138.674 40.9772 138.537 40.7019L132.077 27.8393H125.067V40.1029C125.067 40.7343 124.516 41.2848 123.885 41.2848H120.696C120.048 41.2848 119.514 40.7586 119.514 40.1029V7.61837C119.514 6.97078 120.04 6.43652 120.696 6.43652H134.044C140.075 6.43652 144.988 11.261 144.988 17.1865C144.988 21.5496 142.252 25.3865 137.824 27.2726L144.413 39.4958C144.624 39.8925 144.624 40.3701 144.413 40.7262C144.203 41.0824 143.822 41.2848 143.361 41.2848H139.532L139.54 41.2767ZM133.655 23.12C136.764 23.12 139.395 20.4487 139.395 17.2836C139.395 14.1185 136.764 11.6901 133.655 11.6901H125.164V23.12H133.655Z" fill="white"/>
<path d="M104.01 6.43652H107.248C107.895 6.43652 108.43 6.96269 108.43 7.61837V40.1029C108.43 40.7505 107.904 41.2848 107.248 41.2848H104.01C103.362 41.2848 102.828 40.7586 102.828 40.1029V7.61837C102.828 6.97078 103.354 6.43652 104.01 6.43652Z" fill="white"/>
<path d="M82.0562 41.7613C72.1562 41.7613 64.0938 33.7474 64.0938 23.896C64.0938 14.0446 72.1481 5.93359 82.0562 5.93359C86.6945 5.93359 90.41 7.35828 94.0932 10.5557C94.3603 10.7905 94.506 11.0981 94.5141 11.4219C94.5222 11.7457 94.3927 12.0533 94.158 12.2961L91.9966 14.4979C91.7376 14.8298 91.4462 14.9027 91.2438 14.9027C90.9605 14.9027 90.6853 14.7651 90.4181 14.4979C88.1111 12.4904 85.0027 11.2843 82.1048 11.2843C75.4508 11.2843 70.0354 16.894 70.0354 23.7989C70.0354 30.7038 75.4751 36.2568 82.1533 36.2568C85.8041 36.2568 88.2973 34.7269 90.4424 33.0675C90.6934 32.8732 90.9686 32.768 91.2357 32.768C91.4867 32.768 91.7295 32.857 91.9238 33.0189L94.1984 35.245C94.3927 35.415 94.5141 35.6821 94.5303 35.9735C94.5384 36.3216 94.4008 36.6778 94.158 36.9206C90.9038 40.0857 86.7188 41.7532 82.0562 41.7532V41.7613Z" fill="white"/>
<path d="M46.2666 12.4796L45.1932 10.6046C45.1092 10.4579 44.9926 10.3324 44.8524 10.238C44.7121 10.1437 44.552 10.0829 44.3844 10.0605C44.2168 10.0381 44.0464 10.0546 43.8862 10.1088C43.7261 10.1629 43.5806 10.2533 43.461 10.3729L41.0093 12.8246C40.8287 13.0053 40.7163 13.2429 40.6912 13.4971C40.6661 13.7512 40.7299 14.0062 40.8716 14.2187C41.7675 15.5867 42.4848 17.0636 43.0062 18.6135V18.6135C43.9803 21.5094 44.2515 24.5955 43.7974 27.6169C43.3433 30.6383 42.177 33.5084 40.3948 35.9901C38.6126 38.4718 36.2656 40.494 33.5476 41.8896C30.8297 43.2852 27.8187 44.0143 24.7633 44.0166C21.6157 44.0255 18.5148 43.2556 15.7368 41.7756L19.8928 37.6214C21.9744 38.4093 24.2162 38.6803 26.4256 38.411C28.635 38.1417 30.746 37.3401 32.5774 36.0752C34.4087 34.8102 35.9057 33.1197 36.9397 31.1487C37.9737 29.1777 38.5139 26.9852 38.5139 24.7595C38.513 24.2839 38.4868 23.8086 38.4355 23.3358C38.2725 21.7484 37.8337 20.2016 37.139 18.7651C37.0614 18.609 36.9479 18.4736 36.8079 18.3699C36.6678 18.2662 36.5052 18.1971 36.3333 18.1684C36.1614 18.1396 35.9851 18.152 35.819 18.2046C35.6528 18.2571 35.5014 18.3483 35.3773 18.4706L32.8889 20.9589C32.7564 21.0911 32.6598 21.2549 32.6082 21.4348C32.5567 21.6147 32.5519 21.8048 32.5944 21.9871L32.8035 22.881C33.1712 24.4448 33.0743 26.0818 32.5248 27.5913C31.9752 29.1008 30.9969 30.417 29.7099 31.3783C28.4229 32.3396 26.8832 32.9043 25.2798 33.0029C23.6764 33.1016 22.0791 32.7299 20.684 31.9336L19.5896 31.3063C19.3802 31.1855 19.1368 31.1371 18.8971 31.1686C18.6573 31.2001 18.4347 31.3098 18.2636 31.4806L8.11136 41.6205C8.00062 41.7312 7.91479 41.8643 7.85961 42.0108C7.80444 42.1573 7.78118 42.3139 7.79141 42.4701C7.80164 42.6264 7.84511 42.7786 7.91892 42.9167C7.99273 43.0547 8.09518 43.1755 8.2194 43.2708L9.71453 44.4174C14.0259 47.7402 19.3201 49.5346 24.7633 49.5179C38.4146 49.5179 49.5217 38.4107 49.5217 24.7595C49.5228 20.4528 48.4009 16.2202 46.2666 12.4796Z" fill="url(#paint0_linear_11048_717)"/>
<path d="M39.8072 5.1006C35.4963 1.77799 30.2028 -0.0163647 24.7601 0.000112473C11.1071 0.000112473 3.76354e-07 11.1072 3.76354e-07 24.7602C-0.000750196 29.0669 1.12117 33.2993 3.25511 37.0401L4.32853 38.9151C4.41227 39.0636 4.52939 39.1906 4.67064 39.286C4.81188 39.3815 4.97339 39.4428 5.1424 39.4651C5.31141 39.4874 5.48329 39.4701 5.64446 39.4146C5.80564 39.359 5.9517 39.2668 6.0711 39.1451L8.52115 36.6951C8.70169 36.5144 8.81407 36.2768 8.83917 36.0226C8.86427 35.7685 8.80053 35.5135 8.65881 35.301C7.76363 33.9326 7.04631 32.4558 6.52417 30.9063V30.9063C5.54997 28.0108 5.27843 24.9251 5.73198 21.904C6.18552 18.8829 7.35113 16.013 9.13259 13.5312C10.914 11.0494 13.2603 9.02693 15.9775 7.63074C18.6948 6.23454 21.7051 5.50468 24.7601 5.50139C27.9071 5.49272 31.0074 6.26256 33.7849 7.74233L29.6236 11.8983C27.5421 11.1099 25.3003 10.8385 23.0908 11.1076C20.8813 11.3767 18.7702 12.1783 16.9388 13.4433C15.1075 14.7084 13.6106 16.3992 12.5769 18.3704C11.5432 20.3417 11.0036 22.5344 11.0043 24.7602C11.0043 24.9885 11.0653 26.0306 11.0845 26.21C11.2526 27.7875 11.6912 29.3243 12.3809 30.7529C12.4574 30.9113 12.5707 31.0492 12.7113 31.1549C12.8519 31.2607 13.0158 31.3312 13.1893 31.3607C13.3627 31.3902 13.5407 31.3778 13.7084 31.3245C13.876 31.2712 14.0285 31.1786 14.1531 31.0544L16.6415 28.5677C16.7746 28.4345 16.8714 28.2695 16.9226 28.0883C16.9738 27.9071 16.9779 27.7158 16.9342 27.5326L16.7286 26.6457C16.5841 26.0276 16.5105 25.395 16.5091 24.7602C16.509 23.316 16.8883 21.8971 17.609 20.6456C18.3296 19.394 19.3664 18.3536 20.6154 17.6286C21.8645 16.9036 23.282 16.5194 24.7262 16.5144C26.1704 16.5093 27.5906 16.8837 28.8447 17.6L29.9408 18.2273C30.15 18.3477 30.3931 18.3959 30.6324 18.3644C30.8718 18.3329 31.0941 18.2235 31.2651 18.0531L41.4103 7.90787C41.5211 7.79705 41.607 7.66386 41.6621 7.5172C41.7173 7.37054 41.7406 7.2138 41.7304 7.05743C41.7201 6.90107 41.6767 6.74869 41.6028 6.61047C41.529 6.47225 41.4266 6.35138 41.3023 6.25592L39.8072 5.1006Z" fill="url(#paint1_linear_11048_717)"/>
<path d="M385.404 18.8003L381.684 19.9403C381.474 18.7703 380.514 16.9403 377.814 16.9403C375.804 16.9403 374.484 18.2303 374.484 19.6403C374.484 20.8103 375.234 21.7403 376.794 22.0403L379.764 22.6103C383.634 23.3603 385.704 25.8803 385.704 28.8803C385.704 32.1503 382.974 35.4503 378.024 35.4503C372.384 35.4503 369.894 31.8203 369.564 28.7903L373.404 27.7703C373.584 29.8703 375.054 31.7603 378.054 31.7603C380.274 31.7603 381.504 30.6503 381.504 29.1503C381.504 27.9203 380.574 26.9603 378.924 26.6303L375.954 26.0303C372.564 25.3403 370.374 23.1503 370.374 19.9403C370.374 16.1603 373.764 13.2803 377.784 13.2803C382.944 13.2803 384.924 16.4003 385.404 18.8003Z" fill="white"/>
<path d="M355.201 35.4503C349.261 35.4503 344.311 31.1603 344.311 24.3803C344.311 17.6003 349.441 13.2803 355.141 13.2803C361.021 13.2803 364.051 16.8803 364.891 20.3303L360.991 21.5603C360.481 19.5203 358.831 17.2703 355.141 17.2703C351.961 17.2703 348.601 19.5503 348.601 24.3803C348.601 28.9103 351.781 31.4003 355.201 31.4003C358.831 31.4003 360.601 29.0303 361.171 27.0503L365.041 28.2203C364.231 31.4903 361.171 35.4503 355.201 35.4503Z" fill="white"/>
<path d="M321.466 24.3503C321.466 29.1503 324.826 31.4303 328.096 31.4303C331.396 31.4303 334.756 29.1503 334.756 24.3503C334.756 19.5503 331.396 17.2703 328.096 17.2703C324.826 17.2703 321.466 19.5503 321.466 24.3503ZM317.176 24.3803C317.176 17.5103 322.336 13.2803 328.096 13.2803C333.886 13.2803 339.046 17.5103 339.046 24.3803C339.046 31.2203 333.886 35.4503 328.096 35.4503C322.336 35.4503 317.176 31.2203 317.176 24.3803Z" fill="white"/>
<path d="M297.845 31.1605H301.145C304.625 31.1605 307.535 29.0005 307.535 24.3805C307.535 19.7605 304.655 17.5705 301.175 17.5705H297.845V31.1605ZM301.295 35.0005H293.705V13.7305H301.325C307.385 13.7305 311.825 17.6605 311.825 24.3805C311.825 31.1005 307.355 35.0005 301.295 35.0005Z" fill="white"/>
<defs>
<linearGradient id="paint0_linear_11048_717" x1="12.0684" y1="30.7909" x2="48.6484" y2="30.7909" gradientUnits="userSpaceOnUse">
<stop stop-color="#AF8FF4"/>
<stop offset="1" stop-color="#5FBEFF"/>
</linearGradient>
<linearGradient id="paint1_linear_11048_717" x1="0.147485" y1="18.8878" x2="41.9536" y2="18.8878" gradientUnits="userSpaceOnUse">
<stop stop-color="#68D6F9"/>
<stop offset="1" stop-color="#7EF0B2"/>
</linearGradient>
</defs>
</svg>
