<?xml version="1.0"?>
<svg version="1.1" id="圖層_1" xmlns="http://www.w3.org/2000/svg" x="0" y="0" viewBox="0 0 100 100" xml:space="preserve"><path d="M18.343 88.316h0a5.097 5.097 0 0 1-1.904-6.896l37.438-67.029a6.189 6.189 0 0 1 8.455-2.265h0a6.189 6.189 0 0 1 2.265 8.455l-39.33 65.936a5.097 5.097 0 0 1-6.924 1.799z" fill="#66503a" stroke="#333" stroke-width="3.5" stroke-miterlimit="10"/><path d="M77.65 53.059l-20.8-18.243-11.426-6.597-26.2-8.893c-2.146-.729-2.856-3.54-1.49-5.905h0c.957-1.657 2.683-2.619 4.28-2.386l30.741 4.486 11.426 6.597 19.256 24.38c1 1.266 1.03 3.243.073 4.899h0c-1.367 2.365-4.156 3.156-5.86 1.662z" fill="#666" stroke="#333" stroke-width="3.5" stroke-miterlimit="10"/><path d="M83.436 46.497L64.18 22.117l-.372-.215.788-1.322a6.189 6.189 0 0 0-.877-7.359L20.022 88.908c2.02.35 4.133-.53 5.245-2.391l31.029-52.021.553.319L77.65 53.059c1.704 1.495 4.493.703 5.859-1.662h0c.957-1.657.927-3.633-.073-4.9z" opacity=".2" stroke="#000" stroke-width="3.5" stroke-miterlimit="10"/><path fill="none" stroke="#fff" stroke-width="3.5" stroke-linecap="round" stroke-miterlimit="10" d="M35.456 18.305l-1.362-.276"/><path fill="none" stroke="#fff" stroke-width="3.5" stroke-linecap="round" stroke-miterlimit="10" d="M48.313 20.907l-8.136-1.647"/><metadata xmlns:d="https://loading.io/stock/"><d:name>pickaxe</d:name><d:tags>pickaxe,pick,hand tool,mine,mattock,ice axe,dig</d:tags><d:license>by</d:license><d:slug>whnsbw</d:slug></metadata></svg>