<svg width="16" height="15" viewBox="0 0 16 15" fill="none" xmlns="http://www.w3.org/2000/svg">
<path d="M0.552843 12.1148C0.801347 11.1208 1.69182 10.4581 2.10599 10.251C1.11197 9.75399 1.07056 7.55887 1.1741 6.52344C0.449299 7.55887 -0.689677 10.1267 0.552843 12.1148Z" fill="#0E6988"/>
<path d="M8.33368 11.7841C7.04111 12.8508 5.80419 13.1204 5.21228 13.0465C9.60636 15.4432 12.6894 13.5525 14.268 11.5353C14.9561 10.6559 15.1524 9.51777 15.1524 8.4012V2.64036C15.1524 1.18213 13.9703 0 12.5121 0C11.0539 0 9.87173 1.17961 9.87173 2.63784V7.80118C9.87173 9.29209 9.4836 10.8352 8.33368 11.7841Z" fill="#0E6988"/>
<path d="M9.32676 11.906C8.27876 13.1869 7.36287 13.7439 6.83386 13.6677C9.87182 15.1867 12.8815 13.4401 14.3816 11.4982C15 10.6978 15.1525 9.66224 15.1525 8.65078V2.31031C15.1525 1.03436 14.1181 0 12.8422 0C11.5662 0 10.5318 1.0327 10.5318 2.30865V8.07552C10.5318 9.45216 10.1985 10.8405 9.32676 11.906Z" fill="#15B9A6"/>
<mask id="path-4-outside-1_1493_3226" maskUnits="userSpaceOnUse" x="-0.223236" y="-0.203796" width="9" height="13" fill="black">
<rect fill="white" x="-0.223236" y="-0.203796" width="9" height="13"/>
<path fill-rule="evenodd" clip-rule="evenodd" d="M4.89102 0.880735C5.46392 0.666801 6.12028 0.865876 6.41934 1.39929C7.72597 3.73028 6.49817 7.32139 4.28067 6.21277L6.4545 8.69812H4.28067C4.77772 10.189 5.83405 11.1824 7.38712 11.493C-0.891209 14.7452 -1.00909 3.08423 4.89102 0.880735ZM4.97012 2.79577C4.79866 2.79579 4.6597 2.93488 4.65958 3.10632C4.65958 3.27787 4.79858 3.41685 4.97012 3.41687C5.14168 3.41687 5.28067 3.27788 5.28067 3.10632C5.28054 2.93487 5.1416 2.79577 4.97012 2.79577Z"/>
</mask>
<path fill-rule="evenodd" clip-rule="evenodd" d="M4.89102 0.880735C5.46392 0.666801 6.12028 0.865876 6.41934 1.39929C7.72597 3.73028 6.49817 7.32139 4.28067 6.21277L6.4545 8.69812H4.28067C4.77772 10.189 5.83405 11.1824 7.38712 11.493C-0.891209 14.7452 -1.00909 3.08423 4.89102 0.880735ZM4.97012 2.79577C4.79866 2.79579 4.6597 2.93488 4.65958 3.10632C4.65958 3.27787 4.79858 3.41685 4.97012 3.41687C5.14168 3.41687 5.28067 3.27788 5.28067 3.10632C5.28054 2.93487 5.1416 2.79577 4.97012 2.79577Z" fill="#15B9A6"/>
<path d="M4.89102 0.880735L4.78235 0.589733L4.78234 0.589737L4.89102 0.880735ZM6.41934 1.39929L6.69031 1.2474L6.69029 1.24738L6.41934 1.39929ZM4.28067 6.21277L4.41958 5.93492L4.04686 6.41727L4.28067 6.21277ZM6.4545 8.69812V9.00875H7.13888L6.68831 8.49361L6.4545 8.69812ZM4.28067 8.69812V8.38749H3.84967L3.98599 8.79637L4.28067 8.69812ZM7.38712 11.493L7.5007 11.7822L8.48439 11.3957L7.44803 11.1884L7.38712 11.493ZM4.97012 2.79577V2.48514H4.9701L4.97012 2.79577ZM4.65958 3.10632L4.34895 3.10609V3.10632H4.65958ZM4.97012 3.41687L4.9701 3.7275H4.97012V3.41687ZM5.28067 3.10632H5.5913V3.10609L5.28067 3.10632ZM4.89102 0.880735L4.99969 1.17174C5.44669 1.00482 5.9331 1.1672 6.14839 1.5512L6.41934 1.39929L6.69029 1.24738C6.30746 0.564554 5.48115 0.328784 4.78235 0.589733L4.89102 0.880735ZM6.41934 1.39929L6.14838 1.55118C6.75301 2.62982 6.77125 4.01159 6.3832 4.98038C6.18982 5.46317 5.90914 5.81046 5.58772 5.98218C5.28097 6.14606 4.89555 6.17288 4.41958 5.93492L4.28067 6.21277L4.14177 6.49061C4.77455 6.80696 5.37416 6.80063 5.88047 6.53014C6.3721 6.26748 6.73248 5.77918 6.95991 5.21139C7.41348 4.07902 7.3923 2.49975 6.69031 1.2474L6.41934 1.39929ZM4.28067 6.21277L4.04686 6.41727L6.22069 8.90262L6.4545 8.69812L6.68831 8.49361L4.51448 6.00826L4.28067 6.21277ZM6.4545 8.69812V8.38749H4.28067V8.69812V9.00875H6.4545V8.69812ZM4.28067 8.69812L3.98599 8.79637C4.51597 10.386 5.65681 11.4638 7.3262 11.7976L7.38712 11.493L7.44803 11.1884C6.0113 10.9011 5.03948 9.99195 4.57535 8.59987L4.28067 8.69812ZM7.38712 11.493L7.27353 11.2039C5.26048 11.9948 3.81099 11.8545 2.83846 11.2526C1.86043 10.6473 1.28684 9.52725 1.13067 8.19656C0.815653 5.51235 2.21966 2.20999 4.9997 1.17173L4.89102 0.880735L4.78234 0.589737C1.66228 1.75498 0.175165 5.38485 0.513643 8.26897C0.68422 9.72243 1.32353 11.0456 2.5115 11.7809C3.70497 12.5196 5.37459 12.6174 7.5007 11.7822L7.38712 11.493ZM4.97012 2.79577L4.9701 2.48514C4.62689 2.48517 4.3492 2.76348 4.34895 3.10609L4.65958 3.10632L4.97021 3.10655L4.97015 3.1064L4.97012 2.79577ZM4.65958 3.10632H4.34895C4.34895 3.44945 4.62704 3.72747 4.9701 3.7275L4.97012 3.41687L4.97015 3.10624L4.97021 3.10632H4.65958ZM4.97012 3.41687V3.7275C5.31324 3.7275 5.5913 3.44943 5.5913 3.10632H5.28067H4.97004L4.97012 3.10624V3.41687ZM5.28067 3.10632L5.5913 3.10609C5.59104 2.7635 5.31339 2.48514 4.97012 2.48514V2.79577V3.1064L4.97004 3.10655L5.28067 3.10632Z" fill="#151617" mask="url(#path-4-outside-1_1493_3226)"/>
</svg>
